<?xml version="1.0" standalone="no"?>
<!DOCTYPE svg PUBLIC "-//W3C//DTD SVG 20010904//EN"
 "http://www.w3.org/TR/2001/REC-SVG-20010904/DTD/svg10.dtd">
<svg version="1.0" xmlns="http://www.w3.org/2000/svg"
 width="61.000000pt" height="61.000000pt" viewBox="0 0 61.000000 61.000000"
 preserveAspectRatio="xMidYMid meet">

<g transform="translate(0.000000,61.000000) scale(0.100000,-0.100000)"
fill="#000000" stroke="none">
<path d="M42 548 c-17 -17 -17 -359 0 -376 8 -8 45 -12 100 -12 l88 0 0 -34
c0 -28 -4 -35 -22 -38 -15 -2 -23 -10 -23 -23 0 -17 8 -20 49 -23 42 -3 48 -1
42 13 -3 9 -6 43 -6 76 l0 59 -100 0 -100 0 0 170 0 170 238 -2 237 -3 3 -35
c3 -33 15 -49 36 -50 14 0 0 101 -15 111 -22 14 -513 11 -527 -3z"/>
<path d="M322 398 c-17 -17 -17 -329 0 -346 7 -7 34 -12 61 -12 l48 0 -3 33
c-3 30 -6 32 -46 35 l-43 3 3 132 3 132 100 0 100 0 3 -40 c3 -36 15 -54 35
-55 13 0 7 85 -9 108 -14 21 -23 22 -128 22 -74 0 -116 -4 -124 -12z"/>
<path d="M457 253 c-4 -3 -7 -50 -7 -104 0 -79 3 -98 16 -103 27 -10 99 -7
112 6 13 13 17 163 6 192 -5 12 -20 16 -63 16 -32 0 -61 -3 -64 -7z m103 -98
l0 -75 -40 0 -40 0 0 75 0 75 40 0 40 0 0 -75z m-30 -89 c0 -3 -4 -8 -10 -11
-5 -3 -10 -1 -10 4 0 6 5 11 10 11 6 0 10 -2 10 -4z"/>
</g>
</svg>
